/* XPM */
static const char * team_logo_xpm[] = {
"192 48 14 1",
" 	c None",
".	c #FCFEFB",
"+	c #E8E6E6",
"@	c #ACD2E7",
"#	c #6DB0D8",
"$	c #E4CDCB",
"%	c #288CC6",
"&	c #0473BE",
"*	c #E8BBB9",
"=	c #9C090B",
"-	c #B03E3C",
";	c #C2A2A0",
">	c #CC8383",
",	c #D16764",
".................................................................................................................................................................+@##...+##++...................",
".....................$+......................................................................................................................................+@#%&&&&#.+%&&&&%#@................",
"....................*=-....................................................................................................................................+#%&&&&&&&&+#&&&&&&&&%@..............",
"...................*===-+.................................................................................................................................#%&&&&&&&&&&#&&&&&&&&&&&#@............",
".......+$.........*=-;>=-+.........$....................................................................................................................+%&&&&&&&&&&&&&&&&&&&&&&&&&&#...........",
".......$=>+......*=,+..$--+......*--...................................................................................................................@&&&&&&&&&&&&&&&&&&&&&&&&&&&&&%..........",
".......*===>+...*,*......>,+...$,==-............................................................................................>>....................@&&&&&&&&&&&&&&&&&&&&&&&&&&&&&&&%+........",
".......*=*+*>*++*.........$;+$*>*+>=........................................................................................==-$==->-==*.............#&&&&&&&&&&&&&&&&&&&&&&&&&&&&&&&&&%+.......",
".......>=.........................*=..............>..........$=-.....................................$,;..................=========,=>>=>...........@&&&&&&&&&&&&&&&&&&&&&&&&&&&&&&&&&&&%.......",
".......>,............=-...........+=+............;-,>>>>>>*>>-->............*$**$$$..................,==+.................,====->--.*>>>*...........%&&&&&&&&&&&&&&&&&&&&&&&&&&&&&&&&&&&&@......",
".......>*....+++++++*==$+++++++....-*............,========-=====->*.*......+========-*............+..===>..................,===-,=>*=$=.............@#%%%&&&&&&&&&&&&&&&&&&&&&&&&&&&%%%%#+......",
".......>+....-================-+...>>............$====*$+.,==->-====*.....+=============$.......$==========-,$++...........*=====*-$+=>.+...............++#&&&&&&&&&&&&&&&&&&&&&&&#@+...........",
"......+*....+==,,,==,,,,=->,,==$....>...........+=======--,=-=--,>;......>===+>;.+=>..,=>.......$===============$........+>-==>>>,>>,-**=+..................@&&&&&&&&&&&&&&&&&&&%@..............",
"..++.+.+....+==+..,=$..*=-..$==$....*.+++........>==,==>>,,==$.+;==......>===*==+.-=*.*=>.......$====*===>+>-===>........;====.$$......+,+...................+#&&&&&&&&&&&&&&&%@................",
"..+=,>>+....+==+..,=*..*=-..$==$....+>>--..........+===,,.$======........>============>=>..........$.=====>.............+===,.,=======$........................@&&&&&&&&&&&&&%+.................",
"...>>.......+==...,=$..$=,..+==$.......,>..........*===>=*.==-,,,>>......>==>,>.==.*$>>=>.......+*.$-==>,==*............$===..+>=-*>>>+..$......@#@.............@&&&&&&&&&&&%+.............##+..",
"...$-+.......**...$*+...*$...**.......*-+........$-=--=.=-.==>==+*==+....>==..,;-=.->..=>.......>=====,..*==*............>$+>->>>,=>>*+.........%&%..............#&&&&&&&&&%@.............@&&#..",
"....>*......+-=+++.$,*$,*.++$--+......,*..........==$-=.*=+=====>,==+....>==..====*==..,>.......*====*...+-==*.............>============,......+&&&#..........++..%&&&&&&&&@..@..........+&&&%..",
"....$>......+=====*.,==-+$-====$.....$,...........>,.-=..**=====>==$.....>==.*=,==>>=..->.......$-,>>.....$===>*..*.........>>;..;=-++$$*......#&&&&#.........%&@..%&&&&&&#.+#&@........+%&&&&@.",
".....,$.....+==>**++,,,-$+**>==$.....>$..............==...+========......>==.$=.+$..=..,>..................>====--*.............>==*...........%&&&&&#.......@&&&%@#&&&&&&@#&&&%.......+%&&&&&@.",
".+*+.+>+....+==---;+>..>$$=-===$....+>..+*...........-.....,>=>*,=,......>=,...........*>...................>====+.........*>+++===+...........%&&&&&&%+.....#&&&&&%&&&&&%%&&&&&+.....@&&&&&&&#.",
"..==>$$.....+==,>>+$==-=;+>>,==$.....$*,=*...............................$*............**....................>>>...........+======*...........+&&&&&&&&%@.....@&&&&&&&&&&&&&&&#.....+#&&&&&&&&#.",
"..$=$.......+==---*.,==-+$,--==$.......*-+.............................................>...................................+=====-............@&&&&&&&&&&%#@....@%&&&&&&&&&&#@....@#%&&&&&&&&&#.",
"...,>........*>>>>$$-$$-*+>>>>>........->.....................................................................................=,..............@&&&&&&&&&&&&&%##@##&&&&&&&&&&#####&&&&&&&&&&&&&#.",
"...$,........*>>>>>>>>>>>>>>>>*.......$,+.....................................................................................................@&&&&&&&&&&&&&&&&&&&&&&&&&&&&&&&&&&&&&&&&&&&&&&&#.",
"....>$......+==--------------==$......>*......................................................................................................@&&&&&&&&&&&&&&&&&&&&&&&&&&&&&&&&&&&&&&&&&&&&&&&#.",
".+$>>$......+==$,-========--*==$......*>>$.............@@............+...............@@.............#..............@........+#+.@#+..@#.......+&&&&&&&&&&&&&&&&&&&&&&&&&&&&&&&&&&&&&&&&&&&&&&&#.",
".$=-+.......+==$--********,=>==$.......$=,.............#%........%&&&#%&&&&&&+..+@@@@#%@@@@+.......+%+............+%.........%%..%#..%#........&&&&&&&&&&&&&&&&&&&&&&&&&&&&&&&&&&&&&&&&&&&&&&&#.",
"..;=$.......+==$,->,,--,,,--*==$.......>-+.............#%........&@+%@%@@@@@@...#&&&&&&&&&&#...@+@@@%@+@+@........+%.........+%@.#%+@&@........%&&&&&&&&&&&&&&&&&&&&&%&&%&&&&&&&&&&&&&&&&&&&&&@.",
"...>,.......+==+.+++.==$.+++$==$......+=*..............#%........%@@%.%.........#%..#@...##...+%%%%%%%%%%%@.......+%........%%%%%%%%%%%%.......#&&&&&&&&&&&&&&&&&&&&@%&&@%&&&&&&&&&&&&&&&&&&&&@.",
"....-$......+==$-===========*==$......>,..........%%%%%%%%%%%%+..%##@.%@@@@@+...#%.+%@...%#.....@#++++.@#....#%%%%%%%%%%%@..%@........#%.......@&&&&&&&&&&&&&&&&&&&#.%&&#+&&&&&&&&&&&&&&&&&&&%..",
"....*>......+==+****$==**$-=>==$.....+,+..........#####%%#####+..&@%+.%&&&&&#...#%.#%@@@@%%@....+%.....%@....@####%%#####@..%@#######@#%........&&&&&&&&&&&&&&&&&&&@.%&&#.%&&&&&&&&&&&&&&&&&&#..",
".....>*.....+-=+-======+..,=*=-+.....*+................#&........%###.%@#..##...#%.%##%%%%%#....+%+....%@.........#&@.......#+#####%&%@#........#&&&&&&&&&&&&&&&&&&..%&&#.+&&&&&&&&&&&&&&&&&&+..",
"..$++.*......+$.$******...+*.$$......$++$$.............%&#.......%#+%+%+&@.%@...#%#%#....%#......%+...+%+.........%&#............+@&%+..........@%&&&&&&&&&&&&&&&&@..%&&#..%&&&&&&&&&&&&&&&&%...",
"..,=->>>*$...........+*..........+$*>>-==*............@%#&+......%#.&@%.%#+&+...#%%%#@&+.%#......##...@%.........@%#&............#&#.............@@@#&&&&&&&&&&&&&+..@@@+..#&&&&&&&&&&&&%@@@+...",
"...>======,,=====>..*=$..+,=====>-======*............+%#.&@......%#.%@%.#%%%....#%+##.#%.%#......#%...##.........%%.%#......#%%%%%%%%%%%............#&&&&&&&&&&&&&.........@&&&&&&&&&&&&&+......",
"....+>-====,*$$*>=-.-==>+-->*$$*-===-,>..............%%+.@&+.....%#%%#%.+%&@....%#.##.+&@%#......@%+..%@........#&+.@%@.....@@@@+#%@@@@+...........+&&&&&&&&&&&&&%.........@&&&&&&&&&&&&&%......",
"....+,--,--->>,->*-**=-$>,>,-,>,-,-,--;.............#&@...#%+....%#%###.+&&+....%@.##....%#.......&#.@&+.......@&@...%&@.........##................#&&&&&&&&&&&&&%.........+&&&&&&&&&&&&&&@.....",
"......*,,---=>,--,>>>>>>>>,--*-=---,>$............@%&@....+%&#...%#..&@@&##%@..+&+.##....%#...@@@@%%@%%@@@@..@%&#.....#&#+.......##................@&&&&&&&&&&&&&#.........+%&&&&&&&&&&&&%......",
".........*-,--*>,>>$,=>**>>,>>-,,-$...............%%@.......#&#..&#.%%@&@..#%+.@#..##..#%&#...#%%%%%%%%%%%#..%%@.......@&#....+%%%#.................#&&&&&&&&&&&&%.........@&&&&&&&&&&&&%+......",
".........+>-=->*,>,+>=>+$>>,*,--,>................@..........@@..#@+#@+.....+......@@..@##...................#...........@.....###@..................#&&&&&&&&&&&&.........@&&&&&&&&&&&&@.......",
"...........+-==,>>-+>=>>$,->-==>......................................................................................................................#&&&&&&&&&&&+........#&&&&&&&&&&&@........",
"............+>>>*>>*>=>>*>>$>>;........................................................................................................................#&&&&&&&&&&@........%&&&&&&&&&%@.........",
"..............+---,>>=>>,>-->...........................................................................................................................@%&&&&&&&&%.......+&&&&&&&&&#+..........",
"...............+$>-,>=>>--*$+............................................................................................................................+#&&&&&&&&@......#&&&&&&&%@............",
"................+>,+;=>>*,*................................................................................................................................@#&&&&&&#.....@&&&&&&&@..............",
".....................$$+.....................................................................................................................................+#%&&&%.....@&&&%#@................",
"................................................................................................................................................................+@#@......#@@..................."};
