/* XPM */
static const char * team_logo_l_xpm[] = {
"256 64 50 1",
" 	c None",
".	c #FCFFFB",
"+	c #C9E1F3",
"@	c #9ACBE5",
"#	c #76B3D7",
"$	c #EAEFF2",
"%	c #3F98CB",
"&	c #0573BE",
"*	c #CC8385",
"=	c #C26D6E",
"-	c #D79C9D",
";	c #9A0506",
">	c #B54C48",
",	c #E6B7B5",
"'	c #A42323",
")	c #EAD5D2",
"!	c #E3EFF8",
"~	c #ECD1D1",
"{	c #E9CACA",
"]	c #EBCECE",
"^	c #DBA6A7",
"/	c #E3BABA",
"(	c #E3BBBB",
"_	c #B3D8EB",
":	c #A6D1E8",
"<	c #D69B9C",
"[	c #AD3B3B",
"}	c #9F1213",
"|	c #AD3939",
"1	c #CEE4F4",
"2	c #D5E7F5",
"3	c #E4F0F9",
"4	c #0081BE",
"5	c #A0CEE6",
"6	c #63A7D6",
"7	c #D4E7F2",
"8	c #DFEDF6",
"9	c #D6E8F2",
"0	c #E5F2F8",
"a	c #1088C2",
"b	c #D5E9F4",
"c	c #C3E0EF",
"d	c #ADD4E9",
"e	c #4B9ECE",
"f	c #348DCA",
"g	c #87BEDE",
"h	c #3098CA",
"i	c #CCE4F1",
"j	c #81B8DE",
"k	c #C0DEEE",
"........................................................................................................................................................................................................................+@#@.....@@@$...........................",
"....................................................................................................................................................................................................................+@%&&&&&@...#&&&&&#@$$......................",
"............................*=...................................................................................................................................................................................+@%&&&&&&&&%$.@&&&&&&&&&#@$....................",
"...........................-;;=................................................................................................................................................................................+#%&&&&&&&&&&&#.%&&&&&&&&&&&%@+..................",
"..........................-;;;;=.............................................................................................................................................................................+#%&&&&&&&&&&&&&%#&&&&&&&&&&&&&&%@$................",
".........................*;;>>;;=...........................................................................................................................................................................@%&&&&&&&&&&&&&&&&&&&&&&&&&&&&&&&&&%+...............",
"..........,-............*;'*).*';=............,-...........................................................................................................................................................#&&&&&&&&&&&&&&&&&&&&&&&&&&&&&&&&&&&&&@..............",
"..........*;>-.........*;>,....)='>.........,>'>..........................................................................................................................................................%&&&&&&&&&&&&&&&&&&&&&&&&&&&&&&&&&&&&&&&#.............",
"..........=;;;'-......*>-........,>=......,>;;;>.........................................................................................................................................................%&&&&&&&&&&&&&&&&&&&&&&&&&&&&&&&&&&&&&&&&&%$...........",
"..........>;=)*>>-...-*............-=...,>>*,-;'.......................................................................................................................................................+&&&&&&&&&&&&&&&&&&&&&&&&&&&&&&&&&&&&&&&&&&&&%...........",
"..........>;,....,-)))...............,.-,.....';...........................................................................................................................;;....,.....................&&&&&&&&&&&&&&&&&&&&&&&&&&&&&&&&&&&&&&&&&&&&&&%..........",
"..........''..................................>;.....................................................................................................................';;;,-;;;>=';;;-.................%&&&&&&&&&&&&&&&&&&&&&&&&&&&&&&&&&&&&&&&&&&&&&&&%.........",
"..........;=................';-...............-;)..................-..............-;>..................................................)=*.........................;;;;;;;;;;>;>;',>;>...............@&&&&&&&&&&&&&&&&&&&&&&&&&&&&&&&&&&&&&&&&&&&&&&&&&+........",
"..........;,...............,;;>................;,..................>-............);;;..................................................*;;'.......................,;;;;;;;;;=>;$->).;;)..............+%&&&&&&&&&&&&&&&&&&&&&&&&&&&&&&&&&&&&&&&&&&&&&&&%$........",
".........)'.......,,,,,,,,,*;;>,,,,,,,,,,......>-................*;;;;;;;;;;;,;;;;;-)................==-=>*-*-,).......................;;;;........................*;;;;;')$';..,-=;..................+@@@@#%&&&&&&&&&&&&&&&&&&&&&&&&&&&&&&&&&&&%#@@@+$.........",
".........,=......*;;;;;;;;;;;;;;;;;;;;;;',.....-*................);;;;;;;;;;;=;;;;;;;;>*-.)-.........;;;;;;;;;;;;*,................)...;;;;=........................*;;;;;>>;;.-;=$;.........................+#&&&&&&&&&&&&&&&&&&&&&&&&&&&&&&%@+$...............",
".........-,......>;;>>>>';;>>>>>;;>=>=';;-......*.................-;;;;;-))$.-;;;>>=>;;;;;;,........;;;;;;;;;;;;;;;;;-...........';;;;;;;;;;;;>>=)..................);;;;;;;,*>..*;-............................@&&&&&&&&&&&&&&&&&&&&&&&&&&%@$..................",
".........,.......>;;)$$)=;')$$$-;;*$$$*;;-......-................=;;;;;;;'>*-.>;=>>>=*)...........=;;;;......;>....;;;..........);;;;;;;;;;;;;;;;;;;;).............)-;;;=;;;;;;;;';).;,...........................#&&&&&&&&&&&&&&&&&&&&&&&@$....................",
"...),))).).......>;;)..$=;')...,;;-...*;;-......).))),)..........;;;;;;;;;;;;'';;;;>;;;;;.........;;;;;$;;>..;;;...=;;...........;;;;;;;;;;;;;;;;;;;;>............-;;;;;*).)))...----';............................@&&&&&&&&&&&&&&&&&&&&%+......................",
"...);'===).......>;;)..$=;')...,;;-...*;;-.......===>;-..........)=';-';;=--=->;;,....>;;.........;;;;;,';;..=;;-..-;;...........;;;;;');;;;=.)-=';;;;............';;;;;.),).........)'.............................+%&&&&&&&&&&&&&&&&&%$.......................",
"....=>...........>;;$..$=;')...,;;-...-;;-..........=>)..............;';;,;*..=;;;;;;;;...........;;;;;;;;;;;;;;;;;,;;..............,..;;;;;;;...................=;;;;,.=;;;;;;;;;;.............+##..................+%&&&&&&&&&&&&&&&%$.................+##$...",
"....)'-..........,'=....,'*$...$>>)...$>>..........)'-...............;';;,;'...;;'----............;;;;;;;-);;)--=';';;................>;;;>;;;*..................;;;;*..);;;>..*;';.............#&&#..................+%&&&&&&&&&&&&&%$.................$#&&@...",
".....*>...........,).......)...).......))..........*>...............*;;;;.>;>..;;;;;;;;;'-........>;;.),...;;..-....';...........;)),;;;;,.-;;;-.................;';'.....$;;>>*.......-........&&&&+..................@&&&&&&&&&&&&%+..................@&&&%$..",
".....)>,.........=;;))))$.->-)->-.$)))-;;,........)>-.............*;;;*>;..;;.);;>);;.),';;.......';;...>;.;;.$;>...';..........*;;;;;;;>....;;;*................,,..-='=>===;>==-,)...........+&&&&%..............++...#&&&&&&&&&&&@...@$.............+&&&&&$..",
"......**.........>;;''''-.)>;';>).*'''';;*........,>...............;;>.';..*;.,;;;;;;=-=;;;.......;;;...;;>;;,);;...=;..........,;;;;;;,.....=;;;=..................,;;;;;;;;;;;;;;;;;,........#&&&&&%.............%&#...%&&&&&&&&&#..+#&#............+%&&&&&@..",
"......)>)........>;;=***,.)>;';>).-=**>;;*........=,...............;;,.';...=.>;;;;;;;;;;>).......;;;..);;;;;;;;;...>;..........);;;;;'.......;;;;>..................;;;')))$;;'-),-*>,........%&&&&&&%...........@&&&%@.+&&&&&&&&&$.#&&&&+..........+%&&&&&&#..",
".......*-........>;;-,,)..->-)*>-.$,,,=;;*.......)>.................-..;;.....-;;;>;;-);;.........;;;..=;*.';...;)..=;............=))..........;;;;;>...=...................>;;=...............&&&&&&&&%..........&&&&&&%+%&&&&&&&#@&&&&&&%.........+&&&&&&&&%..",
"..),)...=).......>;;''''*.,*...*)$=;'';;;*.......=)...,,...............;;.....);;;;;;;;;;.........;;;..);...)...;)..*;.........................*;;;;;;>'-..................>;;;)..............!&&&&&&&&&&@.......+%&&&&&&&%&&&&&&&%&&&&&&&%........#&&&&&&&&&&..",
"...;'>-),........>;;>===).*;'*';*.,===>;;*.......,)-=';,...............~...............{].........^/(...............,;..........................=;;;;;;.............)'.....;;;;..............._&&&&&&&&&&&#........@&&&&&&&&&&&&&&&&&&&&%+.......+%&&&&&&&&&&&$.",
"...*;-...........>;;*---$..=;;;*..)--->;;*..........)'>.............................................................)'...........................';;;,...............;;>>;;;;;................:&&&&&&&&&&&&&#+.......#&&&&&&&&&&&&&&&&%#......$+#&&&&&&&&&&&&&+.",
"....'>...........=;;;;;;=.-';>;',$>;;;;;',..........-;,.............................................................,,...............................................;;;;;;;;-................#&&&&&&&&&&&&&&&%@++....+%&&&&&&&&&&&&&#+..$$++@%&&&&&&&&&&&&&&&+.",
"....*')...........-*****).->).,>-.,*****-...........>>..............................................................<................................................[};;;;;|.................#&&&&&&&&&&&&&&&&&&%%#####&&&&&&&&&&&&&#####%%&&&&&&&&&&&&&&&&&&+.",
"....)>-..........)-------*---*---*------,..........)>,........................................................................................................................................#&&&&&&&&&&&&&&&&&&&&&&&&&&&&&&&&&&&&&&&&&&&&&&&&&&&&&&&&&&&&&&&+.",
".....-=..........=;;;;;;;;;;;;;;;;;;;;;;;,.........-=.........................................................................................................................................#&&&&&&&&&&&&&&&&&&&&&&&&&&&&&&&&&&&&&&&&&&&&&&&&&&&&&&&&&&&&&&&+.",
"......*).........>;;=*===============*>;;-.........*,.........................................................................................................................................@&&&&&&&&&&&&&&&&&&&&&&&&&&&&&&&&&&&&&&&&&&&&&&&&&&&&&&&&&&&&&&&+.",
"..),*=*).........>;;)-''''''''''''''',*;;-.........-==-)......................................................................................................................................@&&&&&&&&&&&&&&&&&&&&&&&&&&&&&&&&&&&&&&&&&&&&&&&&&&&&&&&&&&&&&&&$.",
"..-;',...........>;;)=;>,,,,,,,,,,,>;-*;;-..........)>;=......................................................................................................................................+&&&&&&&&&&&&&&&&&&&&&&&&&&&&&&&&&&&&&&&&&&&&&&&&&&&&&&&&&&&&&&&..",
"...>',...........>;;)=;'*=========*';-*;;-..........)>')...............................++++++.++++123.............&#.................%4..................&#...........567...89.....0...........&&&&&&&&&&&&&&&&&&&&&&&&&&&&&&&&&&&&&&&&&&&&&&&&&&&&&&&&&&&&&&%..",
"...);>...........>;;),======';;======)*;;-..........*;,...................4%...........&&&&&##&&&&&&&&a.....bcd5@@4%@@@@@@...........%4..................&#............ef...gh...ijk...........%&&&&&&&&&&&&&&&&&&&&&&&&&&&%%&&&#%&&&&&&&&&&&&&&&&&&&&&&&&&&&#..",
"....,'-..........>;;).$$$$$.';;$.$$$$.*;;-.........)'*....................4%...........&#$@4@#4@@@@@@@@....%&&&&&&&&&&&&&&@....+.....%4+....+............&#............+4#..@4@..44............#&&&&&&&&&&&&&&&&&&&&&&&&&&&+%&&&@@&&&&&&&&&&&&&&&&&&&&&&&&&&&@..",
".....=>..........>;;)=;;;;;;;;;;;;;;;,*;;-.........*>)....................4%...........&#.#4$#4............%4+++@@+++++@@+....@44444444444444#...........&#..........@4%44%%444%444%%..........@&&&&&&&&&&&&&&&&&&&&&&&&&&@.%&&&#.#&&&&&&&&&&&&&&&&&&&&&&&&&&+..",
".....)>-.........>;;),=*****';;====';-*;;-........)>,....................+4%...........&#.%%.#4............%4...44.....44.....+%%%%%%%%%%%%%%#....+.....+&#..........@&4%%%%%%%%%%%44...........&&&&&&&&&&&&&&&&&&&&&&&&&%.$%&&&#.$&&&&&&&&&&&&&&&&&&&&&&&&&%$..",
"......,=)........>;;)$,,,,,)';;....>;-*;;-........-*...............4444444444444444....&#$&+.#4@@@@@@@.....%4..+4#.....4%.......+%+.......%@.....@444444444444444%...@&+...........%4...........%&&&&&&&&&&&&&&&&&&&&&&&&@.$%&&&#..#&&&&&&&&&&&&&&&&&&&&&&&&#...",
".......-,........*;'.*;;;;;;;;;....>;,,;',.......)*................%%%%%%%44%%%%%%%....&@%4..#&&&&&&&&.....%4..#4++++++4%+.......&#......+&+.....+%%%%%%%44%%%%%%%...@&+@@@@@@@@@@+%4...........@&&&&&&&&&&&&&&&&&&&&&&&&$.$%&&&#..+&&&&&&&&&&&&&&&&&&&&&&&&+...",
"...)....-.........,).)-,,,,,,,,....)-..,,........,....)).................+4&...........&##&+.#4@@+++#&.....%4..4%@&&&&&44&@......4%......#4.............@&4..........@&+4&&&&&&&44#%&...........+%&&&&&&&&&&&&&&&&&&&&&&#..$%&&&#...%&&&&&&&&&&&&&&&&&&&&&&%$...",
"...'>=-))).......................................),*>'',.................#4&@..........&#.%4.#4@&$..#&.....%4.@&%+#####44#+......%4......%4.............#&4@..........+.......+#&4+..............+%%%%%&&&&&&&&&&&&&&&&&@...#%%%@...#&&&&&&&&&&&&&&&&&%%%%#+....",
"...-;;;'''>=*,.)))..........)>).........))).)**>''';;;=..................%44%..........&#.@4+#4.&#..4%.....%4+44%......4%........@&$.....4%.............444#.................+%&%.....................#&&&&&&&&&&&&&&&&&$...........@&&&&&&&&&&&&&&&&&@.........",
"....,';;;;;;;'=>;;;;;;'-...-;-....,>;;;;;;'*>;;;;;;;;*...................&%#&+.........&#.$&@%4.%4.$&@.....%4%44%.4&...4%.........&@....+4#............@4@44................@&4#.....................+&&&&&&&&&&&&&&&&&&$...........+&&&&&&&&&&&&&&&&&&$........",
"......,=>';;;;'=,))),-=;>).''>;,.*;>--))))*';;;;'>=-....................%&.+4#.........&#.$&@4%.#&+%4......%4%+%%..&4..4%.........4%....@4@............%4+@&@........+######%4%######................%&&&&&&&&&&&&&&&&&%$...........$&&&&&&&&&&&&&&&&&&#........",
"......-'>*--**=>*,>;;>*,'*.>;>',,;*->';'*,>=**--*='=...................@4%..44+........&#$+4@4%.+4%4%......%4..%%..#4@.4%.........%4....#&............@&%..%&........@444444444444444...............@&&&&&&&&&&&&&&&&&&%$...........$&&&&&&&&&&&&&&&&&&&+.......",
".......-';;;;;'>>*)-===**>))>'=$*>-===*),>>'';;;;'=....................44+...&4........&#444#4#..%4&+......4%..%%..+&%.4%.........#4+...4%...........+44...@4%........+.....#4@.....................#&&&&&&&&&&&&&&&&&&#............$%&&&&&&&&&&&&&&&&&&@.......",
"........)-==>>>>''->'>'=*>)*=****>->>'>->''>>>>=*)....................4&#....@4%.......&#44#@4@..%&4.......4#..%%......4%.........+&#..+&@..........+44@....%&%.............@4+......................%&&&&&&&&&&&&&&&&&#............$%&&&&&&&&&&&&&&&&&%........",
"............,>==>>=,===-*=$>;--,,>,*==,*>>==>-......................@44#......%&4@.....&#...%4..%&444.....+&@..%%......4%..........4%..%4..........#4&#......%44+...........@4+......................+&&&&&&&&&&&&&&&&&%$...........$&&&&&&&&&&&&&&&&&%$........",
"............)=;;;;;**>>-=-.=;>=$)=-=>=,;;;;;>,.....................%&4%........#4&%....&#..+&#+44%.#44+...#&...%%....+.4%.....%%%%%4&%%444%%%4+..+%&4#........%4&#........+.#4+.......................@&&&&&&&&&&&&&&&&%$...........$&&&&&&&&&&&&&&&&&+.........",
"..............)->=*-,-*->,.=;-,))>***,-*=>*))......................&4@..........@4&@...&#..44.%4+...@4%...##...%%...@44&%.....%%%%%%%%%%%%%%%4+..#&%+..........@&&+......%4444+........................@&&&&&&&&&&&&&&&&$...........+&&&&&&&&&&&&&&&&+..........",
"................>;;;>->=>-.=;*-*)>=>=*;;;')........................#..............#@...%@.@%@.@.......@..........................................@#..............#.......#%%%#..........................@&&&&&&&&&&&&&&&+...........@&&&&&&&&&&&&&&&+...........",
".................-===$=-*=.=;*-*,>-=)*==*)...............................................................................................................................................................@&&&&&&&&&&&&&&@...........%&&&&&&&&&&&&&%+............",
"...................,=====>)=;*-===*>==*...................................................................................................................................................................+%&&&&&&&&&&&&%..........$&&&&&&&&&&&&&#$.............",
"....................>''>=',*;*-=>==''').....................................................................................................................................................................#&&&&&&&&&&&&+.........@&&&&&&&&&&&%@...............",
"......................)->;)=;*-=>'*).........................................................................................................................................................................@%&&&&&&&&&&#.........%&&&&&&&&&&#+................",
"......................)=>-.*;-=*,=>,...........................................................................................................................................................................@%&&&&&&&&&+.......@&&&&&&&&&#+..................",
"...........................)*)-).................................................................................................................................................................................+#&&&&&&&#.......%&&&&&&&#+$...................",
"....................................................................................................................................................................................................................@%&&&&#.......%&&&&#+$......................",
".......................................................................................................................................................................................................................+@@........$#@+.........................."};
